<svg xmlns="http://www.w3.org/2000/svg" width="1920" height="1080" viewBox="0 0 1920 1080">
  <defs>
    <linearGradient id="grad1" x1="0%" y1="0%" x2="100%" y2="100%">
      <stop offset="0%" style="stop-color:#0a192f;stop-opacity:1" />
      <stop offset="100%" style="stop-color:#253b5f;stop-opacity:1" />
    </linearGradient>
    <filter id="noise" x="0%" y="0%" width="100%" height="100%">
      <feTurbulence type="fractalNoise" baseFrequency="0.65" numOctaves="3" stitchTiles="stitch" result="noise"/>
      <feColorMatrix type="matrix" values="1 0 0 0 0 0 1 0 0 0 0 0 1 0 0 0 0 0 0.05 0" />
    </filter>
  </defs>
  
  <!-- Background -->
  <rect width="100%" height="100%" fill="url(#grad1)"/>
  
  <!-- Noise overlay -->
  <rect width="100%" height="100%" filter="url(#noise)" opacity="0.4"/>
  
  <!-- Grid lines -->
  <g stroke="#8ba3d4" stroke-width="0.5" opacity="0.15">
    <!-- Horizontal lines -->
    <line x1="0" y1="100" x2="1920" y2="100" />
    <line x1="0" y1="200" x2="1920" y2="200" />
    <line x1="0" y1="300" x2="1920" y2="300" />
    <line x1="0" y1="400" x2="1920" y2="400" />
    <line x1="0" y1="500" x2="1920" y2="500" />
    <line x1="0" y1="600" x2="1920" y2="600" />
    <line x1="0" y1="700" x2="1920" y2="700" />
    <line x1="0" y1="800" x2="1920" y2="800" />
    <line x1="0" y1="900" x2="1920" y2="900" />
    <line x1="0" y1="1000" x2="1920" y2="1000" />
    
    <!-- Vertical lines -->
    <line x1="100" y1="0" x2="100" y2="1080" />
    <line x1="300" y1="0" x2="300" y2="1080" />
    <line x1="500" y1="0" x2="500" y2="1080" />
    <line x1="700" y1="0" x2="700" y2="1080" />
    <line x1="900" y1="0" x2="900" y2="1080" />
    <line x1="1100" y1="0" x2="1100" y2="1080" />
    <line x1="1300" y1="0" x2="1300" y2="1080" />
    <line x1="1500" y1="0" x2="1500" y2="1080" />
    <line x1="1700" y1="0" x2="1700" y2="1080" />
    <line x1="1900" y1="0" x2="1900" y2="1080" />
  </g>
  
  <!-- Decorative elements -->
  <!-- Circuits -->
  <g stroke="#4f83cc" stroke-width="1.5" fill="none" opacity="0.6">
    <path d="M200,200 L400,200 L400,400 L600,400 L600,600 L800,600" />
    <path d="M1000,300 L1200,300 L1200,500 L1400,500 L1400,700 L1600,700" />
    <path d="M100,900 L300,900 L300,700 L500,700 L500,500 L700,500" />
    <path d="M1700,200 L1500,200 L1500,400 L1300,400 L1300,600 L1100,600" />
    
    <!-- Add some circuit nodes -->
    <circle cx="400" cy="200" r="5" fill="#4f83cc" />
    <circle cx="600" cy="400" r="5" fill="#4f83cc" />
    <circle cx="1200" cy="300" r="5" fill="#4f83cc" />
    <circle cx="1400" cy="500" r="5" fill="#4f83cc" />
    <circle cx="300" cy="900" r="5" fill="#4f83cc" />
    <circle cx="500" cy="700" r="5" fill="#4f83cc" />
    <circle cx="1500" cy="200" r="5" fill="#4f83cc" />
    <circle cx="1300" cy="400" r="5" fill="#4f83cc" />
  </g>
  
  <!-- Robot head silhouette (simplified) -->
  <g transform="translate(960, 540) scale(0.6)">
    <path d="M-100,-150 L100,-150 L150,-100 L150,100 L100,150 L-100,150 L-150,100 L-150,-100 Z" 
          fill="none" stroke="#64ffda" stroke-width="3" opacity="0.3"/>
    
    <!-- Eyes -->
    <circle cx="-50" cy="-50" r="25" fill="none" stroke="#64ffda" stroke-width="3" opacity="0.5"/>
    <circle cx="50" cy="-50" r="25" fill="none" stroke="#64ffda" stroke-width="3" opacity="0.5"/>
    
    <!-- Mouth -->
    <path d="M-60,50 L60,50" stroke="#64ffda" stroke-width="3" opacity="0.5"/>
    
    <!-- Antenna -->
    <path d="M0,-150 L0,-200 L20,-230" fill="none" stroke="#64ffda" stroke-width="3" opacity="0.3"/>
    <circle cx="20" cy="-230" r="8" fill="none" stroke="#64ffda" stroke-width="2" opacity="0.5"/>
  </g>
  
  <!-- Binary code scattered around -->
  <g fill="#64ffda" opacity="0.2" font-family="Courier New" font-size="12">
    <text x="150" y="150">01001100 01001100 01001101</text>
    <text x="1500" y="250">10110011 01001100 01001101</text>
    <text x="300" y="950">01110010 01100001 01101001</text>
    <text x="1200" y="650">01001100 01001100 01001101</text>
    <text x="800" y="350">10001100 11001100 01001101</text>
    <text x="400" y="550">01001100 01001100 01001101</text>
    <text x="1600" y="850">01001100 01001100 01001101</text>
  </g>
  
  <!-- Data flow lines -->
  <g stroke="#64ffda" stroke-width="1" opacity="0.2">
    <path d="M300,100 Q500,300 700,100" fill="none"/>
    <path d="M1200,900 Q1000,700 800,900" fill="none"/>
    <path d="M1600,500 Q1400,300 1200,500" fill="none"/>
    <path d="M500,800 Q700,600 900,800" fill="none"/>
  </g>
</svg>
